<?xml version="1.0" encoding="utf-8"?>
<!-- Generator: Adobe Illustrator 13.0.0, SVG Export Plug-In . SVG Version: 6.00 Build 14948)  -->
<!DOCTYPE svg PUBLIC "-//W3C//DTD SVG 1.1//EN" "http://www.w3.org/Graphics/SVG/1.1/DTD/svg11.dtd">
<svg version="1.1" id="Layer_1" xmlns="http://www.w3.org/2000/svg" xmlns:xlink="http://www.w3.org/1999/xlink" x="0px" y="0px"
	 width="30px" height="30px" viewBox="0 0 30 30" enable-background="new 0 0 30 30" xml:space="preserve">
<path fill="#515151" d="M30,15.143c0,1.104-0.896,2-2,2h-8c-1.104,0-2-0.896-2-2l0,0c0-1.105,0.896-2,2-2h8
	C29.104,13.143,30,14.037,30,15.143L30,15.143z"/>
<path fill="#515151" d="M18.586,20.586c0.781-0.781,2.047-0.781,2.828,0l5.657,5.658c0.78,0.779,0.78,2.047,0,2.828l0,0
	c-0.781,0.781-2.048,0.781-2.829,0l-5.656-5.658C17.805,22.635,17.805,21.367,18.586,20.586L18.586,20.586z"/>
<path fill="#515151" d="M27.071,0.586c0.78,0.781,0.78,2.047,0,2.828l-5.657,5.658c-0.781,0.779-2.047,0.779-2.828,0l0,0
	c-0.781-0.781-0.781-2.049,0-2.83l5.656-5.656C25.023-0.195,26.29-0.195,27.071,0.586L27.071,0.586z"/>
<g>
	<polygon fill="#515151" points="0,9.999 0,20.499 5.499,20.499 14.999,30 14.999,0 5.002,9.999 	"/>
	<rect x="15" fill="#515151" width="1.5" height="30"/>
</g>
</svg>
