<?xml version="1.0" encoding="utf-8"?>
<!-- Generator: Adobe Illustrator 13.0.0, SVG Export Plug-In . SVG Version: 6.00 Build 14948)  -->
<!DOCTYPE svg PUBLIC "-//W3C//DTD SVG 1.1//EN" "http://www.w3.org/Graphics/SVG/1.1/DTD/svg11.dtd">
<svg version="1.1" id="Layer_1" xmlns="http://www.w3.org/2000/svg" xmlns:xlink="http://www.w3.org/1999/xlink" x="0px" y="0px"
	 width="30px" height="30px" viewBox="0 0 30 30" enable-background="new 0 0 30 30" xml:space="preserve">
<g opacity="0.9">
	<g>
		<path fill="#515151" d="M15,24c-4.142,0-7.5-3.359-7.5-7.5H6c0,4.971,4.03,9,9,9c4.971,0,9-4.029,9-9h-1.5
			C22.5,20.641,19.142,24,15,24z"/>
		<rect x="13.5" y="24.75" fill="#515151" width="3" height="4.5"/>
		<rect x="11.25" y="27" fill="#515151" width="7.5" height="3"/>
		<path fill="#515151" d="M14.999,0c-3.313,0-6,2.686-6,6v10.5c0,3.313,2.687,6,6,6c3.314,0,6-2.687,6-6v-3.209h-7.5v-1.5h7.5v-0.75
			h-7.5v-1.5h7.5v-0.75h-7.5v-1.5h7.5V6C20.999,2.686,18.313,0,14.999,0z"/>
	</g>
</g>
</svg>
