<?xml version="1.0" encoding="utf-8"?>
<!-- Generator: Adobe Illustrator 13.0.0, SVG Export Plug-In . SVG Version: 6.00 Build 14948)  -->
<!DOCTYPE svg PUBLIC "-//W3C//DTD SVG 1.1//EN" "http://www.w3.org/Graphics/SVG/1.1/DTD/svg11.dtd">
<svg version="1.1" id="Layer_1" xmlns="http://www.w3.org/2000/svg" xmlns:xlink="http://www.w3.org/1999/xlink" x="0px" y="0px"
	 width="40px" height="40px" viewBox="0 0 40 40" enable-background="new 0 0 40 40" xml:space="preserve">
<circle fill="#515151" cx="20" cy="20" r="5"/>
<path fill="#515151" d="M11,20c0,1.104-0.896,2-2,2H5c-1.104,0-2-0.896-2-2l0,0c0-1.104,0.896-2,2-2h4C10.104,18,11,18.896,11,20
	L11,20z"/>
<path fill="#515151" d="M37,20c0,1.104-0.896,2-2,2h-4c-1.104,0-2-0.896-2-2l0,0c0-1.104,0.896-2,2-2h4C36.104,18,37,18.896,37,20
	L37,20z"/>
<path fill="#515151" d="M20,29c1.104,0,2,0.896,2,2v4c0,1.104-0.896,2-2,2l0,0c-1.104,0-2-0.896-2-2v-4C18,29.896,18.896,29,20,29
	L20,29z"/>
<path fill="#515151" d="M20,3c1.104,0,2,0.896,2,2v4c0,1.104-0.896,2-2,2l0,0c-1.104,0-2-0.896-2-2V5C18,3.896,18.896,3,20,3L20,3z"
	/>
<path fill="#515151" d="M26.364,26.363c0.781-0.78,2.048-0.78,2.828,0l2.829,2.829c0.78,0.78,0.78,2.048,0,2.828l0,0
	c-0.781,0.781-2.048,0.781-2.829,0.001l-2.828-2.829C25.583,28.412,25.583,27.145,26.364,26.363L26.364,26.363z"/>
<path fill="#515151" d="M7.979,7.979c0.781-0.78,2.048-0.78,2.828,0l2.829,2.829c0.78,0.78,0.78,2.048,0,2.828l0,0
	c-0.781,0.781-2.048,0.781-2.829,0.001l-2.828-2.829C7.198,10.027,7.198,8.76,7.979,7.979L7.979,7.979z"/>
<path fill="#515151" d="M13.636,26.363c-0.781-0.78-2.048-0.78-2.828,0l-2.829,2.829c-0.78,0.78-0.78,2.048,0,2.828l0,0
	c0.781,0.781,2.048,0.781,2.829,0.001l2.828-2.829C14.417,28.412,14.417,27.145,13.636,26.363L13.636,26.363z"/>
<path fill="#515151" d="M32.021,7.979c-0.781-0.78-2.048-0.78-2.828,0l-2.829,2.829c-0.78,0.78-0.78,2.048,0,2.828l0,0
	c0.781,0.781,2.048,0.781,2.829,0.001l2.828-2.829C32.802,10.027,32.802,8.76,32.021,7.979L32.021,7.979z"/>
</svg>
