<?xml version="1.0" encoding="utf-8"?>
<!-- Generator: Adobe Illustrator 13.0.0, SVG Export Plug-In . SVG Version: 6.00 Build 14948)  -->
<!DOCTYPE svg PUBLIC "-//W3C//DTD SVG 1.1//EN" "http://www.w3.org/Graphics/SVG/1.1/DTD/svg11.dtd">
<svg version="1.1" id="Layer_1" xmlns="http://www.w3.org/2000/svg" xmlns:xlink="http://www.w3.org/1999/xlink" x="0px" y="0px"
	 width="70px" height="70px" viewBox="0 0 70 70" enable-background="new 0 0 70 70" xml:space="preserve">
<rect display="none" fill="#EA1818" width="70" height="70"/>
<rect display="none" fill="#EA1818" width="70" height="70"/>
<path fill="#FFB640" d="M55,38v-6l-7.842-1.568c-0.104-0.27-0.209-0.539-0.33-0.801l4.434-6.652l-4.242-4.243l-6.647,4.434
	c-0.265-0.118-0.531-0.227-0.804-0.329L38,15h-6l-1.568,7.842c-0.271,0.102-0.539,0.21-0.802,0.329l-6.649-4.434l-4.242,4.243
	l4.434,6.652c-0.12,0.262-0.227,0.531-0.33,0.801L15,32v6l7.842,1.568c0.103,0.271,0.209,0.539,0.33,0.801l-4.434,6.652l4.242,4.242
	l6.649-4.435c0.265,0.116,0.531,0.228,0.802,0.328L32,55h6l1.568-7.842c0.271-0.102,0.537-0.211,0.803-0.328l6.648,4.434
	l4.242-4.242l-4.435-6.651c0.121-0.263,0.228-0.529,0.33-0.802L55,38z M35,45c-5.522,0-10-4.479-10-10c0-5.521,4.478-10,10-10
	c5.521,0,10,4.479,10,10C45,40.521,40.521,45,35,45z"/>
<path fill="#FFB640" d="M35,20c-8.284,0-15,6.719-15,15s6.716,15,15,15c8.283,0,15-6.719,15-15S43.283,20,35,20z M35,47
	c-6.627,0-12-5.375-12-12s5.373-12,12-12s12,5.375,12,12S41.627,47,35,47z"/>
<path fill="#FFFFFF" d="M35,23c-6.627,0-12,5.375-12,12s5.373,12,12,12s12-5.375,12-12S41.627,23,35,23z"/>
<circle fill="#FFB640" cx="35" cy="35" r="8"/>
</svg>
