<?xml version="1.0" encoding="utf-8"?>
<!-- Generator: Adobe Illustrator 13.0.0, SVG Export Plug-In . SVG Version: 6.00 Build 14948)  -->
<!DOCTYPE svg PUBLIC "-//W3C//DTD SVG 1.1//EN" "http://www.w3.org/Graphics/SVG/1.1/DTD/svg11.dtd">
<svg version="1.1" id="Layer_1" xmlns="http://www.w3.org/2000/svg" xmlns:xlink="http://www.w3.org/1999/xlink" x="0px" y="0px"
	 width="30px" height="30px" viewBox="0 0 30 30" enable-background="new 0 0 30 30" xml:space="preserve">
<g opacity="0.9">
	<circle fill="#515151" cx="23.754" cy="2.854" r="2.854"/>
	<g>
		<path fill="#515151" d="M19.239,5.011L19.76,4.9C19.585,4.92,19.41,4.955,19.239,5.011z"/>
		<path fill="#515151" d="M28.835,11.991l-3.667-1.176l-2.715-4.703c-0.268-0.454-0.718-0.783-1.241-0.976
			c-0.055-0.024-0.11-0.048-0.166-0.069c-0.063,1.215-0.894,2.455-2.006,2.699l-2.317,0.488l-2.749,5.558
			c-0.28,0.568-0.387,1.22-0.261,1.848c0.04,0.203,0.105,0.404,0.195,0.598c-0.125-0.233-0.21-0.477-0.26-0.724v6.227
			c0,0-5.222-0.001-7.388-0.001c-2.335,0-2.347,3.282-0.041,3.282l9.491,0.001c1.131,0,2.351-0.793,2.351-2.318l0.006-2.868
			l0.064,0.05l1.931,1.487c0,0-3.188,4.136-4.51,5.852c-1.425,1.85,1.167,3.861,2.574,2.036l5.796-7.519
			c0.688-0.895,0.805-2.346-0.403-3.276l-1.989-1.539l-2.143-1.658l1.932-3.914l0.525-1.063l0.027,0.108l1.285,2.227
			c0.248,0.429,0.473,0.546,0.717,0.606l4.146,1.325C29.819,15.08,30.53,12.557,28.835,11.991z"/>
		<path fill="#515151" d="M19.239,5.011l-6.66,1.403c-0.461,0.103-0.638,0.276-0.77,0.485l-2.546,3.528
			c-1.037,1.555,1.142,3.016,2.206,1.579l2.256-3.12l2.998-0.632l0.92-1.861C18.05,5.652,18.622,5.209,19.239,5.011z"/>
		<path fill="#515151" d="M21.046,5.067c-0.408-0.151-0.85-0.214-1.286-0.167l-0.521,0.11c-0.617,0.198-1.189,0.642-1.597,1.383
			l-0.92,1.861l2.317-0.488C20.152,7.522,20.982,6.282,21.046,5.067z"/>
		<path opacity="0.4" fill="#515151" d="M21.046,5.067c-0.408-0.151-0.85-0.214-1.286-0.167l-0.521,0.11
			c-0.617,0.198-1.189,0.642-1.597,1.383l-0.92,1.861l2.317-0.488C20.152,7.522,20.982,6.282,21.046,5.067z"/>
	</g>
</g>
<rect fill="#515151" width="20" height="1"/>
<rect y="4" fill="#515151" width="12" height="1"/>
<rect y="8" fill="#515151" width="8" height="1"/>
<rect y="12" fill="#515151" width="6" height="1"/>
<rect y="16" fill="#515151" width="10" height="1"/>
</svg>
