<?xml version="1.0" encoding="utf-8"?>
<!-- Generator: Adobe Illustrator 13.0.0, SVG Export Plug-In . SVG Version: 6.00 Build 14948)  -->
<!DOCTYPE svg PUBLIC "-//W3C//DTD SVG 1.1//EN" "http://www.w3.org/Graphics/SVG/1.1/DTD/svg11.dtd">
<svg version="1.1" id="Layer_1" xmlns="http://www.w3.org/2000/svg" xmlns:xlink="http://www.w3.org/1999/xlink" x="0px" y="0px"
	 width="70px" height="70px" viewBox="0 0 70 70" enable-background="new 0 0 70 70" xml:space="preserve">
<rect display="none" fill="#EA1818" width="70" height="70"/>
<path fill="none" d="M35,17c-9.941,0-18,8.059-18,18c0,4.512,1.671,8.624,4.413,11.783C23.801,43.371,28.979,41,35,41
	s11.199,2.371,13.586,5.783C51.328,43.624,53,39.512,53,35C53,25.059,44.941,17,35,17z"/>
<path fill="#B8B8B8" d="M17,35c0-9.941,8.059-18,18-18s18,8.059,18,18c0,4.512-1.672,8.624-4.414,11.783
	c0.42,0.599,0.752,1.229,0.986,1.885C52.93,45.091,55,40.293,55,35c0-11.046-8.955-20-20-20c-11.046,0-20,8.954-20,20
	c0,5.293,2.07,10.091,5.427,13.668c0.236-0.656,0.567-1.286,0.986-1.885C18.671,43.624,17,39.512,17,35z"/>
<path fill="#B9B9B9" d="M35,39c-6.021,0-11.199,2.371-13.587,5.783C24.713,48.585,29.57,51,35,51c5.43,0,10.287-2.415,13.586-6.217
	C46.199,41.371,41.021,39,35,39z"/>
<path fill="#B8B8B8" d="M35,55c5.754,0,10.924-2.443,14.572-6.332c-0.234-0.656-0.566-1.286-0.986-1.885
	C45.287,50.585,40.43,53,35,53c-5.43,0-10.287-2.415-13.587-6.217c-0.419,0.599-0.75,1.229-0.986,1.885
	C24.076,52.557,29.247,55,35,55z"/>
<path fill="#FFFFFF" d="M35,17c-9.941,0-18,8.059-18,18s8.059,18,18,18s18-8.059,18-18S44.941,17,35,17z M35,51
	c-8.837,0-16-7.163-16-16s7.163-16,16-16c8.836,0,16,7.163,16,16S43.836,51,35,51z"/>
<circle fill="#B9B9B9" cx="35" cy="30" r="9"/>
</svg>
