<?xml version="1.0" encoding="utf-8"?>
<!-- Generator: Adobe Illustrator 13.0.0, SVG Export Plug-In . SVG Version: 6.00 Build 14948)  -->
<!DOCTYPE svg PUBLIC "-//W3C//DTD SVG 1.1//EN" "http://www.w3.org/Graphics/SVG/1.1/DTD/svg11.dtd">
<svg version="1.1" id="Layer_1" xmlns="http://www.w3.org/2000/svg" xmlns:xlink="http://www.w3.org/1999/xlink" x="0px" y="0px"
	 width="40px" height="40px" viewBox="0 0 40 40" enable-background="new 0 0 40 40" xml:space="preserve">
<path fill="none" d="M36,25.172c0-4.191-5.103-7.705-12-8.705v17.41C30.897,32.877,36,29.365,36,25.172z"/>
<path fill="none" d="M4,25.172c0,4.193,5.103,7.705,12,8.705v-17.41C9.103,17.467,4,20.98,4,25.172z"/>
<polygon fill="#515151" points="15.944,39.828 21.6,34.172 15.944,28.516 15.944,39.828 "/>
<circle fill="#515151" cx="20" cy="12.172" r="12"/>
<path fill="#515151" d="M0,25.172c0,5.807,6.871,10.648,16,11.76v-6.055c-6.897-1-12-4.512-12-8.705c0-1.58,0.727-3.062,2-4.352
	v-1.193C2.303,18.799,0,21.82,0,25.172z"/>
<path fill="#515151" d="M34,16.627v1.193c1.273,1.289,2,2.771,2,4.352c0,4.193-5.103,7.705-12,8.705v6.055
	c9.129-1.111,16-5.953,16-11.76C40,21.82,37.697,18.799,34,16.627z"/>
<circle fill="#FFFFFF" cx="20" cy="12.172" r="7"/>
<circle fill="#515151" cx="20" cy="12.172" r="4"/>
</svg>
