<?xml version="1.0" encoding="utf-8"?>
<!-- Generator: Adobe Illustrator 13.0.0, SVG Export Plug-In . SVG Version: 6.00 Build 14948)  -->
<!DOCTYPE svg PUBLIC "-//W3C//DTD SVG 1.1//EN" "http://www.w3.org/Graphics/SVG/1.1/DTD/svg11.dtd">
<svg version="1.1" id="Layer_1" xmlns="http://www.w3.org/2000/svg" xmlns:xlink="http://www.w3.org/1999/xlink" x="0px" y="0px"
	 width="40px" height="40px" viewBox="0 0 40 40" enable-background="new 0 0 40 40" xml:space="preserve">
<path fill="#00ADF7" d="M20,5C11.716,5,5,11.717,5,20s6.716,15,15,15c8.283,0,15-6.717,15-15S28.283,5,20,5z M26.055,21.615
	l-7.826-0.057l2.48,1.984c1.544,1.363-0.599,3.822-2.316,2.318l-5.817-4.845c-0.765-0.765-0.769-1.765,0-2.532l5.794-4.867
	c1.719-1.504,3.839,0.932,2.317,2.316l-2.458,2.008l7.826-0.057C28.663,17.906,28.634,21.637,26.055,21.615z"/>
</svg>
