<?xml version="1.0" encoding="utf-8"?>
<!-- Generator: Adobe Illustrator 13.0.0, SVG Export Plug-In . SVG Version: 6.00 Build 14948)  -->
<!DOCTYPE svg PUBLIC "-//W3C//DTD SVG 1.1//EN" "http://www.w3.org/Graphics/SVG/1.1/DTD/svg11.dtd">
<svg version="1.1" id="Layer_1" xmlns="http://www.w3.org/2000/svg" xmlns:xlink="http://www.w3.org/1999/xlink" x="0px" y="0px"
	 width="70px" height="70px" viewBox="0 0 70 70" enable-background="new 0 0 70 70" xml:space="preserve">
<rect display="none" fill="#EA1818" width="70" height="70"/>
<rect display="none" fill="#EA1818" width="70" height="70"/>
<circle fill="#FFB640" cx="21.5" cy="27.669" r="7"/>
<circle fill="#FFB640" cx="47.5" cy="27.669" r="7"/>
<circle fill="#FFFFFF" cx="47.5" cy="27.669" r="4"/>
<circle fill="#FFFFFF" cx="21.5" cy="27.669" r="4"/>
<circle fill="#FFB640" cx="34.5" cy="27.67" r="11"/>
<circle fill="#FFFFFF" cx="34.5" cy="27.669" r="7"/>
<circle fill="#FFB640" cx="34.5" cy="27.669" r="3"/>
<circle fill="#FFB640" cx="47.5" cy="27.669" r="2"/>
<circle fill="#FFB640" cx="21.5" cy="27.669" r="2"/>
<path fill="#FFFFFF" d="M34.5,14.669c-7.18,0-13,5.822-13,13c0,7.178,5.82,13,13,13c7.18,0,13-5.823,13-13
	C47.5,20.491,41.68,14.669,34.5,14.669z M34.5,38.67c-6.075,0-11-4.926-11-11c0-6.074,4.925-11,11-11c6.074,0,11,4.926,11,11
	C45.5,33.744,40.574,38.67,34.5,38.67z"/>
<polygon fill="#FFB640" points="30.471,54.33 36.126,48.674 30.471,43.018 "/>
<path fill="#FFB640" d="M15.673,40.42c-0.103,0.41-0.173,0.826-0.173,1.25c0,4.658,6.378,8.561,15,9.672v-5.867
	C22.667,44.869,16.696,42.877,15.673,40.42z"/>
<path fill="#FFB640" d="M53.5,41.67c0-0.424-0.07-0.84-0.174-1.25c-1.023,2.457-6.994,4.449-14.826,5.055v5.867
	C47.121,50.23,53.5,46.328,53.5,41.67z"/>
</svg>
