<?xml version="1.0" encoding="utf-8"?>
<!-- Generator: Adobe Illustrator 13.0.0, SVG Export Plug-In . SVG Version: 6.00 Build 14948)  -->
<!DOCTYPE svg PUBLIC "-//W3C//DTD SVG 1.1//EN" "http://www.w3.org/Graphics/SVG/1.1/DTD/svg11.dtd">
<svg version="1.1" id="Layer_1" xmlns="http://www.w3.org/2000/svg" xmlns:xlink="http://www.w3.org/1999/xlink" x="0px" y="0px"
	 width="30px" height="30px" viewBox="0 0 30 30" enable-background="new 0 0 30 30" xml:space="preserve">
<path fill="#00ADF7" d="M15,0C6.716,0,0,6.716,0,15c0,8.286,6.716,15,15,15s15-6.714,15-15C30,6.716,23.284,0,15,0z M21.076,16.618
	l-4.832,5.753c-0.763,0.762-1.754,0.758-2.513,0l-4.809-5.775c-1.493-1.706,0.948-3.833,2.301-2.301l1.97,2.463l-0.055-7.769
	c-0.022-2.56,3.681-2.589,3.704,0l-0.058,7.769l1.992-2.44C20.151,12.808,22.568,14.912,21.076,16.618z"/>
</svg>
