<?xml version="1.0" encoding="utf-8"?>
<!-- Generator: Adobe Illustrator 13.0.0, SVG Export Plug-In . SVG Version: 6.00 Build 14948)  -->
<!DOCTYPE svg PUBLIC "-//W3C//DTD SVG 1.1//EN" "http://www.w3.org/Graphics/SVG/1.1/DTD/svg11.dtd">
<svg version="1.1" id="Layer_1" xmlns="http://www.w3.org/2000/svg" xmlns:xlink="http://www.w3.org/1999/xlink" x="0px" y="0px"
	 width="30px" height="30px" viewBox="0 0 30 30" enable-background="new 0 0 30 30" xml:space="preserve">
<path fill="#B9B9B9" d="M15,30c8.284,0,15-6.716,15-15c0-8.286-6.716-15-15-15S0,6.714,0,15C0,23.284,6.716,30,15,30z M8.924,13.382
	l4.832-5.753c0.763-0.762,1.754-0.758,2.514,0l4.809,5.775c1.492,1.706-0.947,3.833-2.301,2.301l-1.97-2.463l0.056,7.769
	c0.021,2.56-3.682,2.589-3.704,0l0.058-7.769l-1.992,2.44C9.849,17.192,7.432,15.088,8.924,13.382z"/>
</svg>
