<?xml version="1.0" encoding="utf-8"?>
<!-- Generator: Adobe Illustrator 13.0.0, SVG Export Plug-In . SVG Version: 6.00 Build 14948)  -->
<!DOCTYPE svg PUBLIC "-//W3C//DTD SVG 1.1//EN" "http://www.w3.org/Graphics/SVG/1.1/DTD/svg11.dtd">
<svg version="1.1" id="Layer_1" xmlns="http://www.w3.org/2000/svg" xmlns:xlink="http://www.w3.org/1999/xlink" x="0px" y="0px"
	 width="40px" height="40px" viewBox="0 0 40 40" enable-background="new 0 0 40 40" xml:space="preserve">
<path fill="#00ADF7" d="M5,20c0,8.283,6.717,15,15,15s15-6.717,15-15S28.283,5,20,5S5,11.717,5,20z M21.615,13.945l-0.057,7.826
	l1.984-2.48c1.363-1.544,3.822,0.599,2.318,2.316l-4.845,5.817c-0.765,0.765-1.765,0.769-2.532,0l-4.867-5.794
	c-1.504-1.719,0.932-3.839,2.316-2.317l2.008,2.458l-0.057-7.826C17.906,11.337,21.637,11.366,21.615,13.945z"/>
</svg>
