<?xml version="1.0" encoding="utf-8"?>
<!-- Generator: Adobe Illustrator 13.0.0, SVG Export Plug-In . SVG Version: 6.00 Build 14948)  -->
<!DOCTYPE svg PUBLIC "-//W3C//DTD SVG 1.1//EN" "http://www.w3.org/Graphics/SVG/1.1/DTD/svg11.dtd">
<svg version="1.1" id="Layer_1" xmlns="http://www.w3.org/2000/svg" xmlns:xlink="http://www.w3.org/1999/xlink" x="0px" y="0px"
	 width="40px" height="40px" viewBox="0 0 40 40" enable-background="new 0 0 40 40" xml:space="preserve">
<path fill="none" d="M25.172,4c-4.191,0-7.705,5.103-8.705,12h17.41C32.877,9.103,29.365,4,25.172,4z"/>
<path fill="none" d="M25.172,36c4.193,0,7.705-5.103,8.705-12h-17.41C17.467,30.897,20.98,36,25.172,36z"/>
<polygon fill="#515151" points="39.828,24.057 34.172,18.4 28.516,24.057 39.828,24.057 "/>
<circle fill="#515151" cx="12.172" cy="20" r="12"/>
<path fill="#515151" d="M25.172,40c5.807,0,10.648-6.871,11.76-16h-6.055c-1,6.897-4.512,12-8.705,12c-1.58,0-3.062-0.727-4.352-2
	h-1.193C18.799,37.697,21.82,40,25.172,40z"/>
<path fill="#515151" d="M16.627,6h1.193c1.289-1.273,2.771-2,4.352-2c4.193,0,7.705,5.103,8.705,12h6.055
	C35.82,6.871,30.979,0,25.172,0C21.82,0,18.799,2.303,16.627,6z"/>
<circle fill="#FFFFFF" cx="12.172" cy="20" r="7"/>
<circle fill="#515151" cx="12.172" cy="20" r="4"/>
</svg>
