<?xml version="1.0" encoding="utf-8"?>
<!-- Generator: Adobe Illustrator 13.0.0, SVG Export Plug-In . SVG Version: 6.00 Build 14948)  -->
<!DOCTYPE svg PUBLIC "-//W3C//DTD SVG 1.1//EN" "http://www.w3.org/Graphics/SVG/1.1/DTD/svg11.dtd">
<svg version="1.1" id="Layer_1" xmlns="http://www.w3.org/2000/svg" xmlns:xlink="http://www.w3.org/1999/xlink" x="0px" y="0px"
	 width="40px" height="40px" viewBox="0 0 40 40" enable-background="new 0 0 40 40" xml:space="preserve">
<path fill="#B9B9B9" d="M35,20c0-8.283-6.717-15-15-15S5,11.717,5,20s6.717,15,15,15S35,28.283,35,20z M18.385,26.055l0.057-7.826
	l-1.984,2.48c-1.363,1.544-3.822-0.599-2.318-2.316l4.845-5.817c0.765-0.765,1.765-0.769,2.532,0l4.867,5.794
	c1.504,1.719-0.932,3.839-2.316,2.317l-2.008-2.458l0.057,7.826C22.094,28.663,18.363,28.634,18.385,26.055z"/>
</svg>
