<?xml version="1.0" encoding="utf-8"?>
<!-- Generator: Adobe Illustrator 13.0.0, SVG Export Plug-In . SVG Version: 6.00 Build 14948)  -->
<!DOCTYPE svg PUBLIC "-//W3C//DTD SVG 1.1//EN" "http://www.w3.org/Graphics/SVG/1.1/DTD/svg11.dtd">
<svg version="1.1" id="Layer_1" xmlns="http://www.w3.org/2000/svg" xmlns:xlink="http://www.w3.org/1999/xlink" x="0px" y="0px"
	 width="30px" height="30px" viewBox="0 0 30 30" enable-background="new 0 0 30 30" xml:space="preserve">
<path fill="#59C800" d="M15,0C6.716,0,0,6.716,0,15s6.716,15,15,15s15-6.716,15-15S23.284,0,15,0z M21.5,8.5v3v7
	c0,1.656-1.344,3-3,3s-3-1.344-3-3c0-1.658,1.344-3,3-3c0.353,0,0.686,0.072,1,0.184v-3.82l-7,1.273V20.5c0,1.656-1.343,3-3,3
	s-3-1.344-3-3c0-1.658,1.343-3,3-3c0.353,0,0.686,0.072,1,0.184V13.5v-3v-3l11-2V8.5z"/>
</svg>
