<?xml version="1.0" encoding="utf-8"?>
<!-- Generator: Adobe Illustrator 13.0.0, SVG Export Plug-In . SVG Version: 6.00 Build 14948)  -->
<!DOCTYPE svg PUBLIC "-//W3C//DTD SVG 1.1//EN" "http://www.w3.org/Graphics/SVG/1.1/DTD/svg11.dtd">
<svg version="1.1" id="Layer_1" xmlns="http://www.w3.org/2000/svg" xmlns:xlink="http://www.w3.org/1999/xlink" x="0px" y="0px"
	 width="40px" height="40px" viewBox="0 0 40 40" enable-background="new 0 0 40 40" xml:space="preserve">
<path fill="#515151" d="M0,0v40h40V0H0z M38,38H2V2h36V38z"/>
<g>
	<g>
		<g>
			<path fill="#515151" d="M25.238,20.716c0,0.723-0.581,1.226-1.221,1.226c0,0-8.023,0-8.034,0c-0.631,0-1.222-0.512-1.222-1.226
				v-8.73c0-1.002,0.803-1.688,1.68-1.688c-0.008,0,7.113,0,7.113,0c0.957,0,1.684,0.762,1.684,1.688V20.716z"/>
		</g>
		<g>
			<g>
				<path fill="#515151" d="M23.274,21.622h-3.058V33.43c0,2.094,3.058,2.094,3.058,0V21.622z"/>
			</g>
			<g>
				<path fill="#515151" d="M19.752,21.622h-3.057V33.43c0,2.078,3.057,2.078,3.057,0V21.622z"/>
			</g>
		</g>
		<circle fill="#515151" cx="20.029" cy="7.294" r="2.294"/>
	</g>
</g>
</svg>
